<svg version="1.2" xmlns="http://www.w3.org/2000/svg" viewBox="0 0 2000 2000" width="2000" height="2000"><defs><linearGradient id="P" gradientUnits="userSpaceOnUse"/><linearGradient id="g1" x1="126.7" y1="-489.3" x2="2486.5" y2="121.9" href="#P"><stop offset="0" stop-color="#0c2b25"/><stop offset="1" stop-color="#236877"/></linearGradient></defs><style>.s0{fill:url(#g1);stroke:#2c2e35;stroke-width:2}.s1{fill:#ffffff}</style><path class="s0" d="m2000 0v2000h-2000v-2000z" /><path class="s1" d="m648.2 952.9c-4.1-5.9-2.7-14 3.2-18.1l19.6-13.7c5.8-4.1 14-2.7 18.1 3.2l172.3 246.1c4.1 5.9 2.7 14-3.2 18.1l-19.5 13.7c-5.9 4.1-14 2.7-18.1-3.2z" /><path class="s1" d="m662.2 934.9c-6.8 2.3-14.2-1.4-16.5-8.1l-7.6-22.7c-2.2-6.8 1.4-14.2 8.2-16.4l174.9-58.7c6.8-2.3 14.2 1.4 16.5 8.1l7.6 22.7c2.3 6.8-1.4 14.2-8.2 16.4z" /><path class="s1" d="m663.4 945.5c-6.8-2.4-9.7-9.5-6.5-15.9l10.8-21.8c3.2-6.4 11.3-9.7 18-7.3l161.7 56.5c6.7 2.3 9.6 9.5 6.5 15.9l-10.8 21.7c-3.2 6.4-11.3 9.7-18.1 7.4z" /><path class="s1" d="m1168.3 878c-6.9-2-10.8-9.3-8.8-16.1l6.7-23c2-6.8 9.2-10.8 16.1-8.8l177.2 51.8c6.9 2 10.9 9.2 8.9 16.1l-6.7 22.9c-2 6.9-9.3 10.8-16.1 8.8z" /><path class="s1" d="m1186.9 1010.8c-6.6 2.7-14.9-0.3-18.3-6.6l-11.6-21.3c-3.5-6.3-0.8-13.5 5.8-16.2l159.3-62.8c6.7-2.7 14.9 0.3 18.3 6.6l11.7 21.3c3.4 6.3 0.8 13.5-5.9 16.2z" /><path class="s1" d="m635.9 901c0.1-7.2 5.9-13 13.1-12.9l24 0.1c7.2 0 13 5.9 12.9 13l-1.2 289.8c-0.1 7.2-5.9 13-13.1 12.9l-24.6-0.1c-7.2 0-13-5.9-12.9-13z" /><path class="s1" d="m1005.4 851.8c6.1 2.7 8.8 9.9 6.1 16l-115.1 253.6c-2.7 6-9.9 8.8-16 6l-20.3-9.2c-6.1-2.8-8.8-10-6.1-16.1l115-253.5c2.8-6.1 10-8.8 16.1-6.1z" /><path class="s1" d="" /><path class="s1" d="m991.4 1019.1c6.5 0 6.5-10 0-10c-6.4 0-6.4 10 0 10z" /><path class="s1" d="m1140.1 851.3c5.2 5 7.4 11 5 13.5c-2.3 2.5-4.3 4.5-4.3 4.5c0 0-4.1 4.2-9 9.4l-45.9 47.5c-4.9 5.1-9.5 9.8-10.2 10.5c-0.6 0.7-1.3 1.4-1.6 1.7c-0.3 0.3-4.6 4.7-9.5 9.9l-12.8 13.2c-5 5.2-13.1 13.6-18.1 18.7l-2.1 2.2c-4.9 5.1-13 13.5-18 18.7l-108.4 112.3c-5 5.1-9 9.3-9 9.3c0 0-0.1 0.1-0.3 0.3c-0.1 0.1-0.8 0.8-1.5 1.5c-0.6 0.7-2.9-0.3-4.9-2.2c-2-2-7.9-7.6-13.1-12.5l-7.8-7.5c-5.2-4.9-8.9-10.2-8.2-11.7c0.7-1.5 1.3-2.7 1.3-2.7c0 0 4-4.2 9-9.4l77.5-80.3c5-5.1 13.1-13.5 18-18.6l39.5-41c5-5.1 9.3-9.5 9.6-9.8c0.2-0.3 1-1.1 1.6-1.7c0.6-0.7 5.2-5.4 10.2-10.6l12.8-13.2c4.9-5.2 9.2-9.6 9.5-9.9c0.3-0.3 1-1.1 1.6-1.7c0.7-0.7 5.2-5.4 10.2-10.5l43.8-45.4c5-5.1 13.3-5.3 18.4-0.4z" /><path class="s1" d="m1068.1 928c3.2 5.8 2 14.5-2.6 19.3l-17.9 18.6c-4.6 4.8-11 3.9-14.2-2l-10.5-19.2c-3.2-5.8-5.9-10.8-6-11c-0.1-0.2-0.5-0.9-0.9-1.6c-0.3-0.6-3.3-6-6.4-11.8l-3.9-7.2c-3.2-5.8-8.5-15.4-11.7-21.3l-16.2-29.8c-3.2-5.9-6.5-11.9-7.3-13.4c-0.8-1.4 0.2-3.6 2.2-4.8c2-1.2 3.6-2.2 3.6-2.2c0.1 0 1.4-0.8 3-1.8c1.6-1 7.7-4.6 13.4-8l6.9-4.1c5.7-3.4 13-1.4 16.2 4.4l28.4 52.1c3.2 5.8 6.1 11.2 6.5 11.8c0.3 0.7 0.7 1.4 0.8 1.6c0.1 0.2 2.8 5.2 6 11z" /><path class="s1" d="m1166.2 1098.5c3.2 5.9 1.2 13.4-4.6 16.8l-20.9 12.4c-5.7 3.4-13.1 1.4-16.3-4.4l-60.7-110.2c-3.2-5.8-2.2-14.7 2.2-19.7l18.1-20.2c4.5-5 10.8-4.3 14 1.5z" /><path class="s1" d="m1372 1192.4c0 7.1-5.8 13-13 13l-24 0.2c-7.1 0-13-5.8-13-12.9l-1.9-297.4c-0.1-7.1 5.7-13 12.9-13.1l24-0.1c7.2-0.1 13 5.7 13.1 12.9z" /><path class="s1" d="" /></svg>